<svg width="729" height="216" viewBox="0 0 729 216" fill="none" xmlns="http://www.w3.org/2000/svg">
<path d="M39.5506 215.332C31.9334 215.332 25.244 213.623 19.4823 210.205C13.7206 206.787 9.17953 201.855 5.85922 195.41C2.53891 188.867 0.634613 181.006 0.146332 171.826L-0.000152588 153.516H8.64243L8.78891 171.973C9.17953 179.395 10.6444 185.742 13.1834 191.016C15.8202 196.191 19.3846 200.244 23.8768 203.174C28.4666 206.006 33.7889 207.422 39.8436 207.422C45.41 207.422 50.244 206.055 54.3456 203.32C58.4471 200.586 61.6209 196.826 63.867 192.041C66.2108 187.158 67.3827 181.445 67.3827 174.902V160.84C67.3827 148.535 65.576 138.77 61.9627 131.543C58.4471 124.219 52.0995 117.236 42.9198 110.596L32.3729 102.686C21.7284 95.2637 14.1112 87.6953 9.52133 79.9805C5.02914 72.2656 2.78305 62.4512 2.78305 50.5371V38.2324C2.78305 30.5176 4.24789 23.8281 7.17758 18.1641C10.1073 12.5 14.2088 8.10547 19.4823 4.98047C24.8534 1.75781 31.0057 0.146484 37.9393 0.146484C45.3612 0.146484 51.6112 1.75781 56.6893 4.98047C61.8651 8.20312 65.869 13.0371 68.701 19.4824C71.6307 25.9277 73.3885 33.9844 73.9745 43.6523V62.1094H65.6248L65.4784 43.5059C65.0877 35.791 63.7694 29.2969 61.5233 24.0234C59.3748 18.75 56.2987 14.7949 52.2948 12.1582C48.3885 9.42383 43.6034 8.05664 37.9393 8.05664C32.4706 8.05664 27.7342 9.32617 23.7303 11.8652C19.7264 14.3066 16.6502 17.7246 14.5018 22.1191C12.3534 26.5137 11.2791 31.6895 11.2791 37.6465V49.9512C11.2791 60.1074 13.2811 68.6035 17.285 75.4395C21.2889 82.2754 28.0272 89.1602 37.4998 96.0938L48.0467 104.004C54.785 108.789 60.1561 113.77 64.16 118.945C68.2616 124.121 71.2401 130.078 73.0956 136.816C74.951 143.457 75.8788 151.318 75.8788 160.4V174.609C75.8788 182.715 74.3651 189.844 71.3377 195.996C68.4081 202.051 64.2088 206.787 58.7401 210.205C53.2713 213.623 46.8748 215.332 39.5506 215.332ZM134.945 215.332C127.328 215.332 120.638 213.623 114.877 210.205C109.212 206.787 104.769 201.855 101.546 195.41C98.3238 188.965 96.7125 181.152 96.7125 171.973V2.05078H105.209V171.094C105.209 178.711 106.429 185.254 108.871 190.723C111.312 196.094 114.73 200.244 119.125 203.174C123.617 206.006 128.89 207.422 134.945 207.422C140.902 207.422 146.127 206.006 150.619 203.174C155.111 200.244 158.578 196.094 161.019 190.723C163.461 185.254 164.681 178.711 164.681 171.094V2.05078H172.884V171.973C172.884 181.152 171.273 188.965 168.05 195.41C164.925 201.855 160.482 206.787 154.72 210.205C149.056 213.623 142.464 215.332 134.945 215.332ZM205.144 213.428V205.664H236.785C245.964 205.664 252.898 203.369 257.585 198.779C262.37 194.189 264.763 187.451 264.763 178.564V136.816C264.763 130.273 263.64 124.951 261.394 120.85C259.245 116.65 255.876 113.574 251.286 111.621C246.697 109.57 240.74 108.545 233.415 108.545H205.144V100.781H232.976C241.96 100.781 248.747 98.6328 253.337 94.3359C258.025 90.0391 260.369 83.3496 260.369 74.2676V35.7422C260.369 27.0508 258.074 20.5566 253.484 16.2598C248.894 11.9629 242.058 9.81445 232.976 9.81445H205.144V2.05078H233.855C241.277 2.05078 247.576 3.27148 252.751 5.71289C257.927 8.1543 261.882 11.8652 264.617 16.8457C267.449 21.7285 268.865 27.9297 268.865 35.4492V74.2676C268.865 79.9316 268.035 84.8145 266.374 88.916C264.812 93.0176 262.468 96.3379 259.343 98.877C256.316 101.318 252.654 102.93 248.357 103.711V104.443C253.923 105.127 258.513 106.836 262.126 109.57C265.837 112.305 268.62 115.967 270.476 120.557C272.331 125.146 273.259 130.566 273.259 136.816V178.711C273.259 186.23 271.892 192.578 269.158 197.754C266.423 202.93 262.37 206.836 256.999 209.473C251.628 212.109 245.036 213.428 237.224 213.428H205.144ZM200.896 213.428V2.05078H209.392V213.428H200.896ZM318.849 213.428V9.96094H285.157V2.05078H361.036V9.96094H327.198V213.428H318.849ZM378.501 213.428V2.05078H412.632C420.835 2.05078 427.671 3.36914 433.14 6.00586C438.608 8.64258 442.71 12.7441 445.444 18.3105C448.179 23.7793 449.546 30.9082 449.546 39.6973V81.2988C449.546 92.4316 447.3 100.781 442.807 106.348C438.413 111.914 432.163 115.43 424.057 116.895L453.94 213.428H444.565L415.415 117.92C414.731 117.92 413.999 117.92 413.218 117.92C412.436 117.92 411.704 117.92 411.02 117.92H386.997V213.428H378.501ZM386.997 110.156H412.485C422.056 110.156 429.184 107.91 433.872 103.418C438.657 98.8281 441.05 91.2109 441.05 80.5664V39.2578C441.05 28.8086 438.657 21.2891 433.872 16.6992C429.184 12.1094 421.811 9.81445 411.753 9.81445H386.997V110.156ZM466.278 213.428L505.243 2.05078H513.299V13.916H510.663L474.921 213.428H466.278ZM482.391 151.904L484.149 144.141H537.323L538.934 151.904H482.391ZM546.844 213.428L511.102 13.916V2.05078H516.376L555.34 213.428H546.844ZM605.178 215.479C597.659 215.479 591.116 213.623 585.549 209.912C579.983 206.201 575.686 200.977 572.659 194.238C569.631 187.402 568.118 179.297 568.118 169.922V45.4102C568.118 36.2305 569.631 28.2715 572.659 21.5332C575.686 14.7949 579.983 9.52148 585.549 5.71289C591.116 1.9043 597.659 0 605.178 0C612.307 0 618.606 1.80664 624.075 5.41992C629.543 8.93555 633.84 13.9648 636.965 20.5078C640.09 27.0508 641.702 34.8145 641.799 43.7988L641.946 73.5352H633.45V43.5059C633.352 36.377 632.131 30.1758 629.787 24.9023C627.541 19.5312 624.319 15.3809 620.12 12.4512C615.92 9.42383 610.94 7.91016 605.178 7.91016C599.221 7.91016 594.094 9.52148 589.797 12.7441C585.5 15.8691 582.229 20.2637 579.983 25.9277C577.737 31.4941 576.614 37.8906 576.614 45.1172V170.215C576.614 177.832 577.737 184.424 579.983 189.99C582.229 195.557 585.5 199.902 589.797 203.027C594.094 206.055 599.221 207.568 605.178 207.568C611.037 207.568 616.018 206.152 620.12 203.32C624.319 200.488 627.541 196.436 629.787 191.162C632.131 185.889 633.352 179.492 633.45 171.973V141.797H641.799V171.533C641.702 180.713 640.09 188.574 636.965 195.117C633.938 201.66 629.69 206.689 624.221 210.205C618.85 213.721 612.502 215.479 605.178 215.479ZM686.656 213.428V9.96094H652.965V2.05078H728.844V9.96094H695.006V213.428H686.656Z" fill="black"/>
</svg>
