<svg width="1024" height="1024" viewBox="0 0 1024 1024" fill="none" xmlns="http://www.w3.org/2000/svg">
<mask id="mask0_104_976" style="mask-type:alpha" maskUnits="userSpaceOnUse" x="0" y="0" width="1024" height="1024">
<rect width="1024" height="1024" rx="265" fill="white"/>
</mask>
<g mask="url(#mask0_104_976)">
<rect width="1024" height="1024" fill="white"/>
<path d="M512 487H822C833.046 487 842 495.954 842 507V517C842 528.046 833.046 537 822 537H512V487Z" fill="#262626"/>
<path d="M512 487H202C190.954 487 182 495.954 182 507V517C182 528.046 190.954 537 202 537H512V923H441.8C322.509 923 262.863 923 217.3 899.784C177.221 879.363 144.637 846.779 124.216 806.7C101 761.137 101 701.491 101 582.2V441.8C101 322.509 101 262.863 124.216 217.3C144.637 177.221 177.221 144.637 217.3 124.216C262.863 101 322.509 101 441.8 101H512V487Z" fill="#262626"/>
</g>
</svg>
